<svg width="713" height="727" viewBox="0 0 713 727" fill="none" xmlns="http://www.w3.org/2000/svg">
<path d="M378.203 528.294C431.013 520.872 477.809 506.305 510.786 488.686C527.267 479.881 540.396 470.261 549.085 460.304C557.769 450.353 562.185 439.859 560.72 429.431C559.254 419.003 552.116 410.132 541.026 402.96C529.929 395.785 514.657 390.156 496.388 386.235C459.832 378.388 410.833 377.284 358.023 384.706C305.212 392.128 258.416 406.695 225.439 424.314C208.958 433.119 195.829 442.739 187.14 452.696C178.456 462.647 174.04 473.141 175.505 483.569C176.971 493.997 184.109 502.868 195.2 510.04C206.296 517.215 221.568 522.844 239.837 526.765C276.393 534.612 325.392 535.716 378.203 528.294Z" fill="black" stroke="black" stroke-width="4"/>
<path d="M610.463 441.357C612.625 456.744 607.736 472.528 596.751 487.972C585.757 503.427 568.72 518.44 546.835 532.157C503.07 559.588 440.239 581.633 368.72 591.684C297.202 601.735 230.729 597.863 181.098 583.558C156.279 576.405 135.765 566.669 120.937 554.843C106.12 543.026 97.0694 529.2 94.907 513.814C92.7446 498.428 97.6337 482.643 108.619 467.2C119.613 451.744 136.65 436.731 158.535 423.014C202.3 395.583 265.131 373.538 336.649 363.487C408.168 353.436 474.641 357.308 524.272 371.613C549.091 378.766 569.605 388.502 584.433 400.328C599.25 412.146 608.3 425.971 610.463 441.357Z" stroke="black" stroke-width="4"/>
<path d="M687.496 468.055C693.748 512.544 663.127 558.471 607.295 596.72C551.577 634.891 471.281 665 379.616 677.883C287.95 690.765 202.466 683.955 138.385 662.621C74.173 641.243 32.0787 605.535 25.8263 561.047C19.5738 516.559 50.1951 470.631 106.027 432.382C161.746 394.211 242.041 364.102 333.706 351.22C425.372 338.337 510.856 345.147 574.937 366.481C639.149 387.859 681.243 423.567 687.496 468.055Z" stroke="black" stroke-width="4"/>
<path d="M263.613 437C248.413 447.8 231.946 467.167 225.613 475.5C208.113 517.5 262.313 526.1 269.113 528.5C274.779 530.5 324.301 530.512 345 528.5C381 525 413 521 450 509.5C470.096 503.254 509.113 493.5 537.113 468.5C531.946 462.167 522.513 450.7 514.113 443.5C503.613 434.5 484.113 419.5 460.113 410C436.113 400.5 402.113 397.5 381.613 398C365.213 398.4 342.779 400.833 333.613 402L318.613 407C306.613 412.5 278.813 426.2 263.613 437Z" fill="white"/>
<path d="M335.613 411.5L341.113 384.5C348.113 384.5 369.613 386 381.113 383C390.313 380.6 405.946 368.667 412.613 363L419.113 410C418.446 410.5 415.913 412.3 411.113 415.5C405.113 419.5 384.113 419 371.113 419.5C360.713 419.9 343.113 414.333 335.613 411.5Z" fill="white"/>
<path d="M319.113 407C324.446 411.5 340.613 423 373.613 423C402.424 423 424.613 410.5 433.613 404.5" stroke="black" stroke-width="4" stroke-linecap="round" stroke-linejoin="round"/>
<path d="M335.743 400.86C309.785 407.895 256.68 432.016 226.113 473.5" stroke="black" stroke-width="4" stroke-linecap="round" stroke-linejoin="round"/>
<path d="M418.711 400.132C439.817 403.771 493.673 411.777 536.613 467.817" stroke="black" stroke-width="4" stroke-linecap="round" stroke-linejoin="round"/>
<path d="M412.161 363.015L419.439 409.594" stroke="black" stroke-width="4" stroke-linecap="round" stroke-linejoin="round"/>
<path d="M339.382 385.576L337.198 410.321" stroke="black" stroke-width="4" stroke-linecap="round" stroke-linejoin="round"/>
<path d="M458.012 278.592C450.463 275.896 446.367 280.775 444.184 285.142L460.195 234.5L423.113 158L382.113 153L284.113 222.5C283.779 238 283.313 270.918 284.113 278.592C285.113 288.183 285.613 311.342 291.613 331C297.613 350.658 312.613 366.5 318.613 374C324.613 381.5 349.613 385 360.613 385.5C371.613 386 392.613 377.5 398.113 374C403.613 370.5 419.113 358.5 423.113 352C426.313 346.8 432.671 331.461 435.45 324.442C436.906 325.898 439.395 327.31 444.184 326.625C448.972 325.941 456.131 318.793 460.195 311.342C464.562 303.336 468.201 282.23 458.012 278.592Z" fill="white"/>
<path d="M284.798 242.202C281.887 278.592 279.703 358.648 329.193 379.027C382.217 400.86 422.35 360.832 435.45 328.081" stroke="black" stroke-width="4" stroke-linecap="round"/>
<path d="M444.184 285.142C446.367 280.775 450.463 275.896 458.012 278.592C468.201 282.23 464.562 303.336 460.195 311.342C456.131 318.793 448.972 325.941 444.184 326.625C439.395 327.31 436.906 325.898 435.45 324.442" stroke="black" stroke-width="4" stroke-linecap="round" stroke-linejoin="round"/>
<path d="M282.614 277.136C280.431 274.953 269.514 271.314 265.148 282.958C259.835 297.127 268.059 312.07 274.609 314.253C281.159 316.437 284.313 313.525 285.526 311.342" stroke="black" stroke-width="4" stroke-linecap="round" stroke-linejoin="round"/>
<path d="M349.571 282.958C347.388 292.177 342.293 312.798 345.932 317.164C348.937 320.771 352.482 318.62 355.393 317.164" stroke="black" stroke-width="4" stroke-linecap="round"/>
<path d="M353.007 339.289C353.995 338.795 354.395 337.594 353.901 336.606C353.407 335.618 352.206 335.217 351.218 335.711L353.007 339.289ZM353.179 357.952C354.257 358.192 355.325 357.512 355.565 356.434C355.805 355.356 355.125 354.287 354.046 354.048L353.179 357.952ZM351.218 335.711C346.321 338.16 342.664 342.563 342.428 347.211C342.306 349.604 343.115 351.943 344.981 353.869C346.812 355.757 349.556 357.147 353.179 357.952L354.046 354.048C350.919 353.353 348.976 352.243 347.853 351.085C346.767 349.963 346.357 348.709 346.423 347.414C346.561 344.687 348.904 341.341 353.007 339.289L351.218 335.711Z" fill="black"/>
<ellipse cx="321.187" cy="282.231" rx="4.36673" ry="6.5501" fill="black"/>
<ellipse cx="395.422" cy="286.597" rx="4.36673" ry="6.5501" fill="black"/>
<path d="M316.821 256.03C317.306 253.119 319.441 247.442 324.099 248.025C328.756 248.607 329.921 253.604 329.921 256.03" stroke="black" stroke-width="4" stroke-linecap="round" stroke-linejoin="round"/>
<path d="M389.599 256.03C389.599 253.119 391.492 249.48 396.149 249.48C400.807 249.48 402.699 253.119 402.699 256.03" stroke="black" stroke-width="4" stroke-linecap="round" stroke-linejoin="round"/>
<path d="M402.699 170.879C394.694 175.246 391.055 177.975 384.505 181.796C375.771 186.89 369.221 191.257 361.943 196.351L372.133 176.701L342.293 202.174L357.576 180.34C345.204 189.074 338.654 195 327.737 204.357C316.376 214.096 310.271 221.096 302.993 229.102L305.176 209.452L284.798 242.202" stroke="black" stroke-width="4" stroke-linecap="round" stroke-linejoin="round"/>
<path d="M282.615 271.314C273.881 248.752 270.97 205.086 299.353 168.695C325.777 134.818 353.21 129.395 376.499 129.395C397.492 129.395 411.19 141.039 415.8 146.861" stroke="black" stroke-width="4" stroke-linecap="round" stroke-linejoin="round"/>
<path d="M416.528 146.134C425.261 142.495 438.28 147.191 452.917 166.512C471.112 190.529 471.84 222.552 468.928 243.658C466.588 260.627 459.467 271.314 455.828 277.136" stroke="black" stroke-width="4" stroke-linecap="round" stroke-linejoin="round"/>
<path d="M403.427 171.607C408.522 177.429 411.694 180.676 416.527 186.89C421.622 193.44 429.628 204.357 433.994 210.179L423.806 181.796C436.178 199.263 442.849 207.268 447.095 225.463C452.189 247.297 448.55 274.953 441.272 291.692" stroke="black" stroke-width="4" stroke-linecap="round" stroke-linejoin="round"/>
<path d="M417.255 141.767C418.711 139.584 423.805 137.401 428.172 137.401" stroke="black" stroke-width="4" stroke-linecap="round" stroke-linejoin="round"/>
<path d="M400.516 133.762C409.977 139.584 414.829 144.436 415.8 146.862C429.628 141.767 437.633 149.773 444.183 154.867C464.192 170.429 472.75 199.237 471.839 224.735C471.112 245.113 468.928 259.669 456.556 277.136L443.456 284.414C444.183 280.532 447.372 267.681 447.822 258.213C448.55 242.93 447.095 227.646 443.456 215.274C440.545 205.376 430.355 189.559 425.261 183.251L433.267 208.724L404.155 170.879L361.943 196.351L372.86 177.429L343.021 201.446L356.121 181.068C351.754 184.707 341.711 192.858 336.471 196.351C331.231 199.845 313.424 219.641 305.176 229.102V210.907L286.253 242.93L284.07 266.219L278.976 264.763C275.337 249.48 275.214 218.413 280.431 203.629C289.164 178.884 307.359 151.228 335.015 137.401C361.216 124.3 393.449 129.413 400.516 133.762Z" fill="black"/>
<path d="M417.613 458.5L460.113 506.5L398.113 521L377.613 481C371.446 475.667 357.813 464.4 352.613 462C346.113 459 341.613 444.5 341.613 438C341.613 432.8 344.613 430.167 346.113 429.5C348.779 431.5 355.113 434.9 359.113 432.5C364.113 429.5 358.613 421 359.113 416C359.513 412 369.279 409.333 374.113 408.5L385.613 413C392.779 417.833 407.413 427.9 408.613 429.5C409.813 431.1 415.113 449.5 417.613 458.5Z" fill="white"/>
<path d="M341.113 432.5C339.613 439.667 344.327 455.907 350.613 460.5C361.013 468.1 371.113 475.5 378.398 482L396.113 519" stroke="black" stroke-width="4" stroke-linecap="round"/>
<path d="M341.613 432C343.113 426 349.213 429.6 349.613 432C350.113 435 354.613 434.5 357.613 432C360.013 430 358.613 421 357.613 418C358.613 415.833 361.113 413.6 363.113 412C365.613 410 370.113 406 375.613 410C381.113 414 384.613 412.5 387.113 414C389.613 415.5 404.113 424.5 407.113 429.5C409.513 433.5 414.779 449.833 417.113 457.5L457.113 504" stroke="black" stroke-width="4" stroke-linecap="round"/>
<path d="M462.113 482.5C467.113 491 465.113 501 458.613 505.5" stroke="black" stroke-width="4" stroke-linecap="round" stroke-linejoin="round"/>
<path d="M207.283 516.519C207.283 521.735 221.449 526.686 228.783 528.519C233.783 529.943 241.283 525.519 247.283 526.019C252.083 526.419 256.949 523.186 258.783 521.519C260.616 519.853 265.083 515.819 268.283 513.019C271.483 510.219 270.949 502.853 270.283 499.519C272.116 499.519 276.883 500.719 279.283 499.519C282.283 498.019 285.283 497.519 284.283 489.519C283.882 486.319 273.783 481.686 268.283 480.519C263.949 477.519 253.683 471.619 247.283 472.019C239.283 472.519 221.783 477.519 212.783 484.019C203.783 490.519 207.283 505.519 207.283 516.519Z" fill="white" stroke="black" stroke-width="4" stroke-linejoin="round"/>
<path d="M342.613 428.5L325.613 400L335.613 393L358.113 417.5" stroke="black" stroke-width="4" stroke-linecap="round" stroke-linejoin="round"/>
<path d="M325.613 400L342.613 428.5C346.213 426.5 348.113 429.333 348.613 431C349.279 432 351.213 434 353.613 434C356.613 434 359.613 431.5 359.613 428.5C359.613 426.1 358.613 420.167 358.113 417.5L335.613 393L325.613 400Z" fill="white" stroke="black" stroke-width="4" stroke-linecap="round" stroke-linejoin="round"/>
<path d="M320.113 388L326.613 397.5L333.613 393L326.613 383.5L320.113 388Z" fill="white" stroke="black" stroke-width="4" stroke-linecap="round" stroke-linejoin="round"/>
<circle cx="300.113" cy="349.5" r="14.5" fill="white" stroke="black" stroke-width="6"/>
<circle cx="316.113" cy="375.5" r="14.5" fill="white" stroke="black" stroke-width="6"/>
<circle cx="188.113" cy="324.5" r="56.5" stroke="black" stroke-width="4"/>
<circle cx="175.613" cy="210" r="30" stroke="black" stroke-width="4"/>
<circle cx="102.613" cy="155" r="30" stroke="black" stroke-width="4"/>
<circle cx="132.113" cy="64.5" r="18.5" stroke="black" stroke-width="4"/>
<circle cx="82.6126" cy="17" r="15" stroke="black" stroke-width="4"/>
<path d="M456.113 284.5C457.758 289.986 465.613 302.833 471.113 308.5C469.946 312.833 463.913 317.3 459.113 330.5C454.313 343.7 459.113 353.5 461.5 357.5C460.5 358.333 456.113 366 456.113 373.5C456.113 381 458 393 471.113 398C477.699 400.511 479 398 489.5 396.5C493.55 395.921 502.613 405.5 518.113 407C528.263 407.982 541.946 408.333 544.113 407.5C544.113 407.5 550.392 409 560 409C572.387 409 577 403 581.613 398C585.954 393.294 587.613 378 587.113 373.5C586.613 369 588.613 366 592.113 359C594.913 353.4 593.279 337.667 592.113 330.5C594.279 328.833 599.813 324.2 604.613 319C610.613 312.5 611.613 297 611.613 293.5C611.613 290 612.113 263 598.613 255.5C585.113 248 578.613 280 577.613 284.5C576.813 288.1 571.946 292 569.613 293.5C565.946 290.5 554.313 283.6 537.113 280C519.913 276.4 506.946 281.5 502.613 284.5C501.446 282.5 499.113 277.7 499.113 274.5C499.113 270.5 502.113 265.5 499.113 248.5C496.113 231.5 482.613 237 474.613 242.5C466.613 248 453.113 274.5 456.113 284.5Z" fill="white" stroke="black" stroke-width="4" stroke-linejoin="round"/>
<path d="M473.113 398.5C463.279 410.667 444.913 441.7 450.113 468.5C455.313 495.3 463.279 515 466.613 521.5C462.779 523.167 455.713 527.7 458.113 532.5C460.513 537.3 474.113 536.833 480.613 536C483.613 533.5 489.013 527.8 486.613 525C484.213 522.2 480.613 474 486.613 452" stroke="black" stroke-width="4" stroke-linecap="round"/>
<path d="M494.113 397C492.113 396.5 478.113 398.8 470.113 400C462.613 410.5 453 428 450.5 446C447.236 469.5 453.613 485.5 454.113 487.5C454.513 489.1 461.946 510.167 465.613 520.5C463.779 522.167 459.813 526.1 458.613 528.5C457.113 531.5 458.113 533 462.613 535.5C466.213 537.5 475.779 536.333 480.113 535.5C483.113 533.167 488.713 527.5 487.113 523.5C485.513 519.5 483.779 505.5 483.113 499L486.113 498C492.279 495.833 507.913 489.4 521.113 481C534.313 472.6 542.946 463.167 545.613 459.5C545.946 462.667 546.413 470 545.613 474C544.613 479 543.613 488.5 539.613 498C535.613 507.5 533.613 506.5 531.113 509C528.613 511.5 528.113 514 528.113 517.5C528.113 521 538.613 528.5 542.613 531.5C546.613 534.5 552.113 528.5 557.613 528.5C563.113 528.5 563.613 523.5 567.113 520.5C569.913 518.1 569.279 513.167 568.613 511C568.779 507.667 569.613 500.4 571.613 498C574.113 495 583.311 479.131 584.613 468.5C587 449 578 417.5 567.113 408.5C567.113 408.5 561.308 408.832 557.613 408.5C552.845 408.071 545.613 406 545.613 406C537.5 408.5 528.742 409.39 520 407.5C501.5 403.5 498 400 494.113 397Z" fill="white" stroke="black" stroke-width="4" stroke-linecap="round" stroke-linejoin="round"/>
<path d="M481.113 444.5L483.613 499" stroke="black" stroke-width="4" stroke-linecap="round"/>
<path d="M495.5 398C491 395 479.625 386.5 484.325 374.5C487.329 366.831 493.713 366.5 497.713 367.5C499.379 359.333 503.5 347.856 509.613 343.5C519.461 336.481 534.113 341 539.113 347C543.113 351.8 545.113 364.667 545.613 370.5C549.446 369.333 559.3 370.3 560.5 379.5C561.7 388.7 554.5 400 545.613 405" stroke="black" stroke-width="4" stroke-linecap="round" stroke-linejoin="round"/>
<path d="M510 382.5C502.089 387.021 499.667 393.833 497.5 397C500.667 399.5 503 403.833 519 406.5C528 408 537 407.167 543.5 406C542.833 404.5 543 400.5 540.5 397C538 393.5 534.75 389.5 531 384.5C527.25 379.5 523.5 372.167 521.5 366.5C519.667 370.167 517 378.5 510 382.5Z" fill="black"/>
<path d="M497.5 397L495.849 395.871L494.795 397.412L496.261 398.57L497.5 397ZM510 382.5L509.008 380.764L509.008 380.764L510 382.5ZM521.5 366.5L523.386 365.834L521.818 361.392L519.711 365.606L521.5 366.5ZM543.5 406L543.853 407.969L546.363 407.518L545.328 405.188L543.5 406ZM519 406.5L518.671 408.473L518.671 408.473L519 406.5ZM499.151 398.129C501.631 394.504 503.612 388.454 510.992 384.236L509.008 380.764C500.565 385.588 497.702 393.163 495.849 395.871L499.151 398.129ZM510.992 384.236C514.917 381.994 517.554 378.58 519.416 375.381C520.351 373.776 521.106 372.196 521.735 370.811C522.387 369.374 522.852 368.269 523.289 367.394L519.711 365.606C519.232 366.565 518.675 367.876 518.093 369.158C517.487 370.491 516.795 371.932 515.959 373.369C514.28 376.253 512.083 379.006 509.008 380.764L510.992 384.236ZM519.614 367.166C521.673 372.999 525.513 380.518 529.4 385.7L532.6 383.3C528.987 378.482 525.327 371.334 523.386 365.834L519.614 367.166ZM529.4 385.7C533.229 390.805 536.377 394.668 538.873 398.162L542.127 395.838C539.623 392.332 536.271 388.195 532.6 383.3L529.4 385.7ZM538.873 398.162C539.9 399.6 540.407 401.178 540.733 402.676C540.901 403.445 541.007 404.117 541.134 404.813C541.245 405.421 541.394 406.185 541.672 406.812L545.328 405.188C545.273 405.065 545.192 404.767 545.069 404.093C544.962 403.508 544.828 402.68 544.642 401.824C544.26 400.072 543.6 397.9 542.127 395.838L538.873 398.162ZM543.147 404.031C536.774 405.175 528.022 405.976 519.329 404.527L518.671 408.473C527.978 410.024 537.226 409.158 543.853 407.969L543.147 404.031ZM519.329 404.527C511.478 403.219 507.146 401.528 504.441 399.958C503.093 399.175 502.109 398.4 501.262 397.659C500.498 396.991 499.566 396.083 498.739 395.43L496.261 398.57C497.017 399.167 497.564 399.739 498.629 400.669C499.61 401.527 500.803 402.471 502.434 403.417C505.687 405.306 510.522 407.115 518.671 408.473L519.329 404.527Z" fill="black"/>
<ellipse cx="482.613" cy="338" rx="5" ry="7" fill="black"/>
<ellipse cx="570.613" cy="347" rx="5" ry="7" fill="black"/>
<ellipse cx="522.113" cy="358" rx="11.5" ry="9" fill="black"/>
</svg>
